<svg color="red" width="30" height="30" viewBox="0 0 30 30" fill="none" xmlns="http://www.w3.org/2000/svg">
<path fill-rule="evenodd" clip-rule="evenodd" d="M15 27C21.6274 27 27 21.6274 27 15C27 8.37258 21.6274 3 15 3C8.37258 3 3 8.37258 3 15C3 21.6274 8.37258 27 15 27ZM19.4051 16C19.9051 16 20.3051 15.6 20.3051 15.1C20.3051 14.6 19.9051 14.2 19.4051 14.2H15.8051V10.6C15.8051 10.1 15.4051 9.7 14.9051 9.7C14.4051 9.7 14.0051 10.1 14.0051 10.6V14.2H10.6051C10.1051 14.2 9.70508 14.6 9.70508 15.1C9.70508 15.6 10.1051 16 10.6051 16H14.0051V19.4C14.0051 19.9 14.4051 20.3 14.9051 20.3C15.4051 20.3 15.8051 19.9 15.8051 19.4V16H19.4051Z" fill="#333333"/>
</svg>
