<svg width="70" height="70" viewBox="0 0 70 70" fill="none" xmlns="http://www.w3.org/2000/svg">
<g filter="url(#filter0_d)">
<rect x="5" y="5" width="50" height="50" rx="25" fill="#F2F2F2"/>
<path fill-rule="evenodd" clip-rule="evenodd" d="M30 20C30.6904 20 31.25 20.5596 31.25 21.25V38.75C31.25 39.4404 30.6904 40 30 40C29.3096 40 28.75 39.4404 28.75 38.75V21.25C28.75 20.5596 29.3096 20 30 20Z" fill="#828282"/>
<path fill-rule="evenodd" clip-rule="evenodd" d="M20 30C20 29.3096 20.5596 28.75 21.25 28.75H38.75C39.4404 28.75 40 29.3096 40 30C40 30.6904 39.4404 31.25 38.75 31.25H21.25C20.5596 31.25 20 30.6904 20 30Z" fill="#828282"/>
<rect x="5.5" y="5.5" width="49" height="49" rx="24.5" stroke="#E0E0E0"/>
</g>
<defs>
<filter id="filter0_d" x="0" y="0" width="70" height="70" filterUnits="userSpaceOnUse" color-interpolation-filters="sRGB">
<feFlood flood-opacity="0" result="BackgroundImageFix"/>
<feColorMatrix in="SourceAlpha" type="matrix" values="0 0 0 0 0 0 0 0 0 0 0 0 0 0 0 0 0 0 127 0"/>
<feOffset dx="5" dy="5"/>
<feGaussianBlur stdDeviation="5"/>
<feColorMatrix type="matrix" values="0 0 0 0 0 0 0 0 0 0 0 0 0 0 0 0 0 0 0.1 0"/>
<feBlend mode="normal" in2="BackgroundImageFix" result="effect1_dropShadow"/>
<feBlend mode="normal" in="SourceGraphic" in2="effect1_dropShadow" result="shape"/>
</filter>
</defs>
</svg>
