<svg width="18" height="18" viewBox="0 0 18 18" fill="none" xmlns="http://www.w3.org/2000/svg">
<path fill-rule="evenodd" clip-rule="evenodd" d="M0.118682 17.2856C-0.0395449 17.449 -0.0395449 17.714 0.118682 17.8774C0.276909 18.0408 0.533445 18.0408 0.691672 17.8774L8.99999 9.29594L17.3083 17.8774C17.4666 18.0409 17.7231 18.0409 17.8813 17.8774C18.0396 17.714 18.0396 17.449 17.8813 17.2856L9.57298 8.70411L17.3084 0.714423C17.4666 0.550995 17.4666 0.286025 17.3084 0.122597C17.1501 -0.0408317 16.8936 -0.0408315 16.7354 0.122597L8.99999 8.11229L1.26464 0.122635C1.10641 -0.0407939 0.849875 -0.0407939 0.691648 0.122635C0.533421 0.286063 0.533421 0.551033 0.691648 0.714461L8.427 8.70411L0.118682 17.2856Z" fill="white"/>
</svg>
