<svg width="246" height="59" viewBox="0 0 246 59" fill="none" xmlns="http://www.w3.org/2000/svg">
<g filter="url(#filter0_d)">
<path d="M35.3672 14.2266H25.125V42H16.8984V14.2266H6.84375V7.875H35.3672V14.2266ZM32.625 29.0859C32.625 26.5547 33.1172 24.3047 34.1016 22.3359C35.0859 20.3516 36.5 18.8281 38.3438 17.7656C40.1875 16.7031 42.3516 16.1719 44.8359 16.1719C48.6328 16.1719 51.625 17.3516 53.8125 19.7109C56 22.0547 57.0938 25.25 57.0938 29.2969V29.5781C57.0938 33.5312 55.9922 36.6719 53.7891 39C51.6016 41.3125 48.6328 42.4688 44.8828 42.4688C41.2734 42.4688 38.375 41.3906 36.1875 39.2344C34 37.0625 32.8203 34.125 32.6484 30.4219L32.625 29.0859ZM40.5234 29.5781C40.5234 31.9219 40.8906 33.6406 41.625 34.7344C42.3594 35.8281 43.4453 36.375 44.8828 36.375C47.6953 36.375 49.1328 34.2109 49.1953 29.8828V29.0859C49.1953 24.5391 47.7422 22.2656 44.8359 22.2656C42.1953 22.2656 40.7656 24.2266 40.5469 28.1484L40.5234 29.5781ZM76.0078 30.3516H61.9219V24.2344H76.0078V30.3516ZM82.5469 42V7.875H93.5391C96.5547 7.875 99.2656 8.5625 101.672 9.9375C104.078 11.2969 105.953 13.2266 107.297 15.7266C108.656 18.2109 109.344 21 109.359 24.0938V25.6641C109.359 28.7891 108.695 31.5938 107.367 34.0781C106.055 36.5469 104.195 38.4844 101.789 39.8906C99.3984 41.2812 96.7266 41.9844 93.7734 42H82.5469ZM90.7734 14.2266V35.6719H93.6328C95.9922 35.6719 97.8047 34.8359 99.0703 33.1641C100.336 31.4766 100.969 28.9766 100.969 25.6641V24.1875C100.969 20.8906 100.336 18.4062 99.0703 16.7344C97.8047 15.0625 95.9609 14.2266 93.5391 14.2266H90.7734ZM112.219 29.0859C112.219 26.5547 112.711 24.3047 113.695 22.3359C114.68 20.3516 116.094 18.8281 117.938 17.7656C119.781 16.7031 121.945 16.1719 124.43 16.1719C128.227 16.1719 131.219 17.3516 133.406 19.7109C135.594 22.0547 136.688 25.25 136.688 29.2969V29.5781C136.688 33.5312 135.586 36.6719 133.383 39C131.195 41.3125 128.227 42.4688 124.477 42.4688C120.867 42.4688 117.969 41.3906 115.781 39.2344C113.594 37.0625 112.414 34.125 112.242 30.4219L112.219 29.0859ZM120.117 29.5781C120.117 31.9219 120.484 33.6406 121.219 34.7344C121.953 35.8281 123.039 36.375 124.477 36.375C127.289 36.375 128.727 34.2109 128.789 29.8828V29.0859C128.789 24.5391 127.336 22.2656 124.43 22.2656C121.789 22.2656 120.359 24.2266 120.141 28.1484L120.117 29.5781ZM160.711 35.6719H175.031V42H152.484V7.875H160.711V35.6719ZM186.469 42H178.547V16.6406H186.469V42ZM178.078 10.1016C178.078 8.97656 178.484 8.05469 179.297 7.33594C180.109 6.61719 181.164 6.25781 182.461 6.25781C183.758 6.25781 184.812 6.61719 185.625 7.33594C186.438 8.05469 186.844 8.97656 186.844 10.1016C186.844 11.2266 186.438 12.1484 185.625 12.8672C184.812 13.5859 183.758 13.9453 182.461 13.9453C181.164 13.9453 180.109 13.5859 179.297 12.8672C178.484 12.1484 178.078 11.2266 178.078 10.1016ZM204.633 34.875C204.633 34.2031 204.281 33.6641 203.578 33.2578C202.875 32.8516 201.539 32.4297 199.57 31.9922C197.602 31.5547 195.977 30.9844 194.695 30.2812C193.414 29.5625 192.438 28.6953 191.766 27.6797C191.094 26.6641 190.758 25.5 190.758 24.1875C190.758 21.8594 191.719 19.9453 193.641 18.4453C195.562 16.9297 198.078 16.1719 201.188 16.1719C204.531 16.1719 207.219 16.9297 209.25 18.4453C211.281 19.9609 212.297 21.9531 212.297 24.4219H204.375C204.375 22.3906 203.305 21.375 201.164 21.375C200.336 21.375 199.641 21.6094 199.078 22.0781C198.516 22.5312 198.234 23.1016 198.234 23.7891C198.234 24.4922 198.578 25.0625 199.266 25.5C199.953 25.9375 201.047 26.2969 202.547 26.5781C204.062 26.8594 205.391 27.1953 206.531 27.5859C210.344 28.8984 212.25 31.25 212.25 34.6406C212.25 36.9531 211.219 38.8359 209.156 40.2891C207.109 41.7422 204.453 42.4688 201.188 42.4688C199.016 42.4688 197.078 42.0781 195.375 41.2969C193.672 40.5156 192.344 39.4531 191.391 38.1094C190.438 36.7656 189.961 35.3516 189.961 33.8672H197.344C197.375 35.0391 197.766 35.8984 198.516 36.4453C199.266 36.9766 200.227 37.2422 201.398 37.2422C202.477 37.2422 203.281 37.0234 203.812 36.5859C204.359 36.1484 204.633 35.5781 204.633 34.875ZM225.164 10.3359V16.6406H229.336V22.125H225.164V33.7266C225.164 34.6797 225.336 35.3438 225.68 35.7188C226.023 36.0938 226.703 36.2812 227.719 36.2812C228.5 36.2812 229.156 36.2344 229.688 36.1406V41.7891C228.266 42.2422 226.781 42.4688 225.234 42.4688C222.516 42.4688 220.508 41.8281 219.211 40.5469C217.914 39.2656 217.266 37.3203 217.266 34.7109V22.125H214.031V16.6406H217.266V10.3359H225.164Z" fill="#F2F2F2"/>
<path d="M35.3672 14.2266V15.2266H36.3672V14.2266H35.3672ZM25.125 14.2266V13.2266H24.125V14.2266H25.125ZM25.125 42V43H26.125V42H25.125ZM16.8984 42H15.8984V43H16.8984V42ZM16.8984 14.2266H17.8984V13.2266H16.8984V14.2266ZM6.84375 14.2266H5.84375V15.2266H6.84375V14.2266ZM6.84375 7.875V6.875H5.84375V7.875H6.84375ZM35.3672 7.875H36.3672V6.875H35.3672V7.875ZM35.3672 13.2266H25.125V15.2266H35.3672V13.2266ZM24.125 14.2266V42H26.125V14.2266H24.125ZM25.125 41H16.8984V43H25.125V41ZM17.8984 42V14.2266H15.8984V42H17.8984ZM16.8984 13.2266H6.84375V15.2266H16.8984V13.2266ZM7.84375 14.2266V7.875H5.84375V14.2266H7.84375ZM6.84375 8.875H35.3672V6.875H6.84375V8.875ZM34.3672 7.875V14.2266H36.3672V7.875H34.3672ZM32.625 29.0859H31.625V29.0947L31.6252 29.1035L32.625 29.0859ZM34.1016 22.3359L34.996 22.7832L34.9974 22.7803L34.1016 22.3359ZM53.8125 19.7109L53.0792 20.3908L53.0814 20.3933L53.8125 19.7109ZM53.7891 39L53.0627 38.3127L53.0626 38.3128L53.7891 39ZM36.1875 39.2344L35.4829 39.944L35.4855 39.9466L36.1875 39.2344ZM32.6484 30.4219L31.6486 30.4394L31.6488 30.4538L31.6495 30.4682L32.6484 30.4219ZM40.5234 29.5781L39.5236 29.5617L39.5234 29.5699V29.5781H40.5234ZM49.1953 29.8828L50.1952 29.8973L50.1953 29.89V29.8828H49.1953ZM40.5469 28.1484L39.5484 28.0927L39.5473 28.1124L39.547 28.132L40.5469 28.1484ZM33.625 29.0859C33.625 26.6866 34.0908 24.5936 34.996 22.7832L33.2071 21.8887C32.1436 24.0158 31.625 26.4228 31.625 29.0859H33.625ZM34.9974 22.7803C35.8979 20.965 37.1775 19.5919 38.843 18.6321L37.8445 16.8992C35.8225 18.0644 34.274 19.7381 33.2057 21.8915L34.9974 22.7803ZM38.843 18.6321C40.5112 17.6708 42.4972 17.1719 44.8359 17.1719V15.1719C42.2059 15.1719 39.8638 15.7355 37.8445 16.8992L38.843 18.6321ZM44.8359 17.1719C48.4091 17.1719 51.1151 18.2724 53.0792 20.3908L54.5458 19.031C52.1349 16.4307 48.8566 15.1719 44.8359 15.1719V17.1719ZM53.0814 20.3933C55.0541 22.5068 56.0938 25.4341 56.0938 29.2969H58.0938C58.0938 25.0659 56.9459 21.6026 54.5436 19.0286L53.0814 20.3933ZM56.0938 29.2969V29.5781H58.0938V29.2969H56.0938ZM56.0938 29.5781C56.0938 33.3383 55.0513 36.2113 53.0627 38.3127L54.5154 39.6873C56.9331 37.1325 58.0938 33.7242 58.0938 29.5781H56.0938ZM53.0626 38.3128C51.0976 40.39 48.4111 41.4688 44.8828 41.4688V43.4688C48.8545 43.4688 52.1055 42.235 54.5155 39.6872L53.0626 38.3128ZM44.8828 41.4688C41.4867 41.4688 38.8574 40.462 36.8895 38.5222L35.4855 39.9466C37.8926 42.3193 41.0602 43.4688 44.8828 43.4688V41.4688ZM36.8921 38.5247C34.9169 36.5637 33.8101 33.882 33.6474 30.3755L31.6495 30.4682C31.8305 34.368 33.0831 37.5613 35.4829 39.944L36.8921 38.5247ZM33.6483 30.4043L33.6248 29.0684L31.6252 29.1035L31.6486 30.4394L33.6483 30.4043ZM39.5234 29.5781C39.5234 31.9853 39.8929 33.9486 40.7948 35.2918L42.4552 34.1769C41.8884 33.3327 41.5234 31.8585 41.5234 29.5781H39.5234ZM40.7948 35.2918C41.734 36.6907 43.148 37.375 44.8828 37.375V35.375C43.7426 35.375 42.9847 34.9656 42.4552 34.1769L40.7948 35.2918ZM44.8828 37.375C46.5912 37.375 47.9818 36.6926 48.9033 35.3053C49.7775 33.9891 50.1628 32.1387 50.1952 29.8973L48.1954 29.8684C48.1653 31.955 47.8006 33.3507 47.2373 34.1986C46.7214 34.9754 45.9869 35.375 44.8828 35.375V37.375ZM50.1953 29.8828V29.0859H48.1953V29.8828H50.1953ZM50.1953 29.0859C50.1953 26.7381 49.826 24.8056 48.9481 23.4321C48.0214 21.9824 46.5988 21.2656 44.8359 21.2656V23.2656C45.9794 23.2656 46.7364 23.6856 47.2629 24.5093C47.8381 25.4092 48.1953 26.8869 48.1953 29.0859H50.1953ZM44.8359 21.2656C43.2289 21.2656 41.8968 21.8832 40.9752 23.1472C40.0965 24.3524 39.6625 26.0474 39.5484 28.0927L41.5453 28.2041C41.65 26.3276 42.0402 25.0812 42.5912 24.3255C43.0993 23.6286 43.8024 23.2656 44.8359 23.2656V21.2656ZM39.547 28.132L39.5236 29.5617L41.5233 29.5945L41.5467 28.1648L39.547 28.132ZM76.0078 30.3516V31.3516H77.0078V30.3516H76.0078ZM61.9219 30.3516H60.9219V31.3516H61.9219V30.3516ZM61.9219 24.2344V23.2344H60.9219V24.2344H61.9219ZM76.0078 24.2344H77.0078V23.2344H76.0078V24.2344ZM76.0078 29.3516H61.9219V31.3516H76.0078V29.3516ZM62.9219 30.3516V24.2344H60.9219V30.3516H62.9219ZM61.9219 25.2344H76.0078V23.2344H61.9219V25.2344ZM75.0078 24.2344V30.3516H77.0078V24.2344H75.0078ZM82.5469 42H81.5469V43H82.5469V42ZM82.5469 7.875V6.875H81.5469V7.875H82.5469ZM101.672 9.9375L101.176 10.8058L101.18 10.8082L101.672 9.9375ZM107.297 15.7266L106.416 16.2L106.42 16.2066L107.297 15.7266ZM109.359 24.0938H110.359L110.359 24.0887L109.359 24.0938ZM107.367 34.0781L106.485 33.6067L106.484 33.6087L107.367 34.0781ZM101.789 39.8906L102.292 40.755L102.294 40.754L101.789 39.8906ZM93.7734 42V43L93.7787 43L93.7734 42ZM90.7734 14.2266V13.2266H89.7734V14.2266H90.7734ZM90.7734 35.6719H89.7734V36.6719H90.7734V35.6719ZM99.0703 33.1641L99.8676 33.7676L99.8703 33.7641L99.0703 33.1641ZM83.5469 42V7.875H81.5469V42H83.5469ZM82.5469 8.875H93.5391V6.875H82.5469V8.875ZM93.5391 8.875C96.3964 8.875 98.9337 9.52459 101.176 10.8057L102.168 9.06926C99.5975 7.60041 96.7129 6.875 93.5391 6.875V8.875ZM101.18 10.8082C103.417 12.0719 105.159 13.8618 106.416 16.2L108.178 15.2531C106.747 12.5913 104.739 10.5218 102.164 9.06683L101.18 10.8082ZM106.42 16.2066C107.692 18.5321 108.345 21.1554 108.359 24.0988L110.359 24.0887C110.343 20.8446 109.62 17.8898 108.174 15.2466L106.42 16.2066ZM108.359 24.0938V25.6641H110.359V24.0938H108.359ZM108.359 25.6641C108.359 28.6429 107.728 31.2827 106.485 33.6067L108.249 34.5496C109.663 31.9048 110.359 28.9352 110.359 25.6641H108.359ZM106.484 33.6087C105.259 35.9141 103.53 37.715 101.284 39.0273L102.294 40.754C104.861 39.2538 106.851 37.1796 108.25 34.5476L106.484 33.6087ZM101.286 39.0262C99.057 40.323 96.5587 40.9852 93.7682 41L93.7787 43C96.8944 42.9835 99.7399 42.2395 102.292 40.755L101.286 39.0262ZM93.7734 41H82.5469V43H93.7734V41ZM89.7734 14.2266V35.6719H91.7734V14.2266H89.7734ZM90.7734 36.6719H93.6328V34.6719H90.7734V36.6719ZM93.6328 36.6719C96.2605 36.6719 98.3874 35.7229 99.8676 33.7676L98.273 32.5605C97.2219 33.9489 95.7239 34.6719 93.6328 34.6719V36.6719ZM99.8703 33.7641C101.321 31.8297 101.969 29.0778 101.969 25.6641H99.9688C99.9688 28.8754 99.3508 31.1234 98.2703 32.5641L99.8703 33.7641ZM101.969 25.6641V24.1875H99.9688V25.6641H101.969ZM101.969 24.1875C101.969 20.7892 101.321 18.0507 99.8676 16.1308L98.273 17.3379C99.3509 18.7618 99.9688 20.9921 99.9688 24.1875H101.969ZM99.8676 16.1308C98.382 14.1683 96.219 13.2266 93.5391 13.2266V15.2266C95.7029 15.2266 97.2274 15.9567 98.273 17.3379L99.8676 16.1308ZM93.5391 13.2266H90.7734V15.2266H93.5391V13.2266ZM112.219 29.0859H111.219V29.0947L111.219 29.1035L112.219 29.0859ZM113.695 22.3359L114.59 22.7832L114.591 22.7803L113.695 22.3359ZM133.406 19.7109L132.673 20.3908L132.675 20.3933L133.406 19.7109ZM133.383 39L132.656 38.3127L132.656 38.3128L133.383 39ZM115.781 39.2344L115.077 39.944L115.079 39.9466L115.781 39.2344ZM112.242 30.4219L111.242 30.4394L111.243 30.4538L111.243 30.4682L112.242 30.4219ZM120.117 29.5781L119.117 29.5617L119.117 29.5699V29.5781H120.117ZM128.789 29.8828L129.789 29.8973L129.789 29.89V29.8828H128.789ZM120.141 28.1484L119.142 28.0927L119.141 28.1124L119.141 28.132L120.141 28.1484ZM113.219 29.0859C113.219 26.6866 113.685 24.5936 114.59 22.7832L112.801 21.8887C111.737 24.0158 111.219 26.4228 111.219 29.0859H113.219ZM114.591 22.7803C115.492 20.965 116.771 19.5919 118.437 18.6321L117.438 16.8992C115.416 18.0644 113.868 19.7381 112.799 21.8915L114.591 22.7803ZM118.437 18.6321C120.105 17.6708 122.091 17.1719 124.43 17.1719V15.1719C121.8 15.1719 119.458 15.7355 117.438 16.8992L118.437 18.6321ZM124.43 17.1719C128.003 17.1719 130.709 18.2724 132.673 20.3908L134.14 19.031C131.729 16.4307 128.45 15.1719 124.43 15.1719V17.1719ZM132.675 20.3933C134.648 22.5068 135.688 25.4341 135.688 29.2969H137.688C137.688 25.0659 136.54 21.6026 134.137 19.0286L132.675 20.3933ZM135.688 29.2969V29.5781H137.688V29.2969H135.688ZM135.688 29.5781C135.688 33.3383 134.645 36.2113 132.656 38.3127L134.109 39.6873C136.527 37.1325 137.688 33.7242 137.688 29.5781H135.688ZM132.656 38.3128C130.691 40.39 128.005 41.4688 124.477 41.4688V43.4688C128.448 43.4688 131.699 42.235 134.109 39.6872L132.656 38.3128ZM124.477 41.4688C121.08 41.4688 118.451 40.462 116.483 38.5222L115.079 39.9466C117.486 42.3193 120.654 43.4688 124.477 43.4688V41.4688ZM116.486 38.5247C114.511 36.5637 113.404 33.882 113.241 30.3755L111.243 30.4682C111.424 34.368 112.677 37.5613 115.077 39.944L116.486 38.5247ZM113.242 30.4043L113.219 29.0684L111.219 29.1035L111.242 30.4394L113.242 30.4043ZM119.117 29.5781C119.117 31.9853 119.487 33.9486 120.389 35.2918L122.049 34.1769C121.482 33.3327 121.117 31.8585 121.117 29.5781H119.117ZM120.389 35.2918C121.328 36.6907 122.742 37.375 124.477 37.375V35.375C123.336 35.375 122.578 34.9656 122.049 34.1769L120.389 35.2918ZM124.477 37.375C126.185 37.375 127.576 36.6926 128.497 35.3053C129.371 33.9891 129.757 32.1387 129.789 29.8973L127.789 29.8684C127.759 31.955 127.394 33.3507 126.831 34.1986C126.315 34.9754 125.581 35.375 124.477 35.375V37.375ZM129.789 29.8828V29.0859H127.789V29.8828H129.789ZM129.789 29.0859C129.789 26.7381 129.42 24.8056 128.542 23.4321C127.615 21.9824 126.193 21.2656 124.43 21.2656V23.2656C125.573 23.2656 126.33 23.6856 126.857 24.5093C127.432 25.4092 127.789 26.8869 127.789 29.0859H129.789ZM124.43 21.2656C122.823 21.2656 121.491 21.8832 120.569 23.1472C119.69 24.3524 119.256 26.0474 119.142 28.0927L121.139 28.2041C121.244 26.3276 121.634 25.0812 122.185 24.3255C122.693 23.6286 123.396 23.2656 124.43 23.2656V21.2656ZM119.141 28.132L119.117 29.5617L121.117 29.5945L121.14 28.1648L119.141 28.132ZM160.711 35.6719H159.711V36.6719H160.711V35.6719ZM175.031 35.6719H176.031V34.6719H175.031V35.6719ZM175.031 42V43H176.031V42H175.031ZM152.484 42H151.484V43H152.484V42ZM152.484 7.875V6.875H151.484V7.875H152.484ZM160.711 7.875H161.711V6.875H160.711V7.875ZM160.711 36.6719H175.031V34.6719H160.711V36.6719ZM174.031 35.6719V42H176.031V35.6719H174.031ZM175.031 41H152.484V43H175.031V41ZM153.484 42V7.875H151.484V42H153.484ZM152.484 8.875H160.711V6.875H152.484V8.875ZM159.711 7.875V35.6719H161.711V7.875H159.711ZM186.469 42V43H187.469V42H186.469ZM178.547 42H177.547V43H178.547V42ZM178.547 16.6406V15.6406H177.547V16.6406H178.547ZM186.469 16.6406H187.469V15.6406H186.469V16.6406ZM186.469 41H178.547V43H186.469V41ZM179.547 42V16.6406H177.547V42H179.547ZM178.547 17.6406H186.469V15.6406H178.547V17.6406ZM185.469 16.6406V42H187.469V16.6406H185.469ZM179.078 10.1016C179.078 9.25094 179.37 8.606 179.959 8.08493L178.634 6.58694C177.598 7.50337 177.078 8.70219 177.078 10.1016H179.078ZM179.959 8.08493C180.555 7.55835 181.358 7.25781 182.461 7.25781V5.25781C180.97 5.25781 179.664 5.67603 178.634 6.58694L179.959 8.08493ZM182.461 7.25781C183.564 7.25781 184.367 7.55835 184.962 8.08493L186.288 6.58694C185.258 5.67603 183.952 5.25781 182.461 5.25781V7.25781ZM184.962 8.08493C185.551 8.606 185.844 9.25094 185.844 10.1016H187.844C187.844 8.70219 187.324 7.50337 186.288 6.58694L184.962 8.08493ZM185.844 10.1016C185.844 10.9522 185.551 11.5971 184.962 12.1182L186.288 13.6162C187.324 12.6998 187.844 11.5009 187.844 10.1016H185.844ZM184.962 12.1182C184.367 12.6448 183.564 12.9453 182.461 12.9453V14.9453C183.952 14.9453 185.258 14.5271 186.288 13.6162L184.962 12.1182ZM182.461 12.9453C181.358 12.9453 180.555 12.6448 179.959 12.1182L178.634 13.6162C179.664 14.5271 180.97 14.9453 182.461 14.9453V12.9453ZM179.959 12.1182C179.37 11.5971 179.078 10.9522 179.078 10.1016H177.078C177.078 11.5009 177.598 12.6998 178.634 13.6162L179.959 12.1182ZM194.695 30.2812L194.206 31.1534L194.214 31.1579L194.695 30.2812ZM193.641 18.4453L194.256 19.2336L194.26 19.2305L193.641 18.4453ZM212.297 24.4219V25.4219H213.297V24.4219H212.297ZM204.375 24.4219H203.375V25.4219H204.375V24.4219ZM199.078 22.0781L199.705 22.8569L199.712 22.8517L199.718 22.8463L199.078 22.0781ZM202.547 26.5781L202.363 27.561L202.364 27.5613L202.547 26.5781ZM206.531 27.5859L206.857 26.6404L206.855 26.6399L206.531 27.5859ZM209.156 40.2891L208.58 39.4716L208.577 39.4737L209.156 40.2891ZM189.961 33.8672V32.8672H188.961V33.8672H189.961ZM197.344 33.8672L198.343 33.8405L198.317 32.8672H197.344V33.8672ZM198.516 36.4453L197.926 37.2534L197.938 37.2613L198.516 36.4453ZM203.812 36.5859L203.188 35.8051L203.182 35.8095L203.177 35.814L203.812 36.5859ZM205.633 34.875C205.633 33.7661 205.015 32.933 204.078 32.3919L203.078 34.1237C203.548 34.3952 203.633 34.6401 203.633 34.875H205.633ZM204.078 32.3919C203.227 31.9 201.751 31.4524 199.787 31.016L199.353 32.9684C201.327 33.407 202.523 33.8032 203.078 34.1237L204.078 32.3919ZM199.787 31.016C197.879 30.5918 196.35 30.0486 195.176 29.4046L194.214 31.1579C195.603 31.9201 197.325 32.5175 199.353 32.9684L199.787 31.016ZM195.185 29.4091C194.014 28.7523 193.167 27.9862 192.6 27.128L190.932 28.2314C191.708 29.4045 192.814 30.3727 194.206 31.1534L195.185 29.4091ZM192.6 27.128C192.045 26.2888 191.758 25.3198 191.758 24.1875H189.758C189.758 25.6802 190.143 27.0393 190.932 28.2314L192.6 27.128ZM191.758 24.1875C191.758 22.1839 192.564 20.5545 194.256 19.2336L193.025 17.657C190.874 19.3361 189.758 21.5349 189.758 24.1875H191.758ZM194.26 19.2305C195.962 17.8879 198.241 17.1719 201.188 17.1719V15.1719C197.915 15.1719 195.163 15.9714 193.021 17.6601L194.26 19.2305ZM201.188 17.1719C204.384 17.1719 206.841 17.8958 208.652 19.2468L209.848 17.6438C207.596 15.9636 204.678 15.1719 201.188 15.1719V17.1719ZM208.652 19.2468C210.438 20.5796 211.297 22.2785 211.297 24.4219H213.297C213.297 21.6278 212.124 19.3423 209.848 17.6438L208.652 19.2468ZM212.297 23.4219H204.375V25.4219H212.297V23.4219ZM205.375 24.4219C205.375 23.2383 205.061 22.1704 204.261 21.4113C203.47 20.6615 202.376 20.375 201.164 20.375V22.375C202.093 22.375 202.604 22.5963 202.884 22.8621C203.154 23.1186 203.375 23.5742 203.375 24.4219H205.375ZM201.164 20.375C200.135 20.375 199.204 20.6718 198.438 21.3099L199.718 22.8463C200.078 22.5469 200.537 22.375 201.164 22.375V20.375ZM198.451 21.2994C197.666 21.9312 197.234 22.7817 197.234 23.7891H199.234C199.234 23.4214 199.365 23.1313 199.705 22.8569L198.451 21.2994ZM197.234 23.7891C197.234 24.8933 197.807 25.7568 198.729 26.3437L199.803 24.6563C199.35 24.3682 199.234 24.0911 199.234 23.7891H197.234ZM198.729 26.3437C199.581 26.8858 200.827 27.2731 202.363 27.561L202.731 25.5953C201.266 25.3206 200.326 24.9892 199.803 24.6563L198.729 26.3437ZM202.364 27.5613C203.845 27.836 205.123 28.1608 206.207 28.532L206.855 26.6399C205.658 26.2298 204.28 25.8828 202.729 25.5949L202.364 27.5613ZM206.206 28.5315C207.992 29.1465 209.241 29.9742 210.043 30.9637C210.835 31.9399 211.25 33.1454 211.25 34.6406H213.25C213.25 32.7452 212.712 31.0796 211.597 29.7043C210.493 28.3423 208.883 27.3379 206.857 26.6404L206.206 28.5315ZM211.25 34.6406C211.25 36.5947 210.405 38.1858 208.58 39.4716L209.732 41.1065C212.032 39.4861 213.25 37.3115 213.25 34.6406H211.25ZM208.577 39.4737C206.744 40.7751 204.308 41.4688 201.188 41.4688V43.4688C204.598 43.4688 207.475 42.7092 209.735 41.1045L208.577 39.4737ZM201.188 41.4688C199.137 41.4688 197.345 41.1004 195.792 40.3879L194.958 42.2058C196.811 43.0559 198.894 43.4688 201.188 43.4688V41.4688ZM195.792 40.3879C194.226 39.6697 193.044 38.7126 192.206 37.5308L190.575 38.6879C191.643 40.1937 193.118 41.3616 194.958 42.2058L195.792 40.3879ZM192.206 37.5308C191.359 36.3367 190.961 35.1217 190.961 33.8672H188.961C188.961 35.5815 189.516 37.1945 190.575 38.6879L192.206 37.5308ZM189.961 34.8672H197.344V32.8672H189.961V34.8672ZM196.344 33.8938C196.381 35.2861 196.861 36.4767 197.926 37.2533L199.105 35.6373C198.67 35.3202 198.369 34.7921 198.343 33.8405L196.344 33.8938ZM197.938 37.2613C198.898 37.9415 200.077 38.2422 201.398 38.2422V36.2422C200.377 36.2422 199.633 36.0116 199.094 35.6293L197.938 37.2613ZM201.398 38.2422C202.584 38.2422 203.661 38.0061 204.448 37.3579L203.177 35.814C202.901 36.0408 202.369 36.2422 201.398 36.2422V38.2422ZM204.437 37.3668C205.222 36.7387 205.633 35.8805 205.633 34.875H203.633C203.633 35.2758 203.496 35.5582 203.188 35.8051L204.437 37.3668ZM225.164 10.3359H226.164V9.33594H225.164V10.3359ZM225.164 16.6406H224.164V17.6406H225.164V16.6406ZM229.336 16.6406H230.336V15.6406H229.336V16.6406ZM229.336 22.125V23.125H230.336V22.125H229.336ZM225.164 22.125V21.125H224.164V22.125H225.164ZM229.688 36.1406H230.688V34.9487L229.514 35.1558L229.688 36.1406ZM229.688 41.7891L229.991 42.7419L230.688 42.5199V41.7891H229.688ZM217.266 22.125H218.266V21.125H217.266V22.125ZM214.031 22.125H213.031V23.125H214.031V22.125ZM214.031 16.6406V15.6406H213.031V16.6406H214.031ZM217.266 16.6406V17.6406H218.266V16.6406H217.266ZM217.266 10.3359V9.33594H216.266V10.3359H217.266ZM224.164 10.3359V16.6406H226.164V10.3359H224.164ZM225.164 17.6406H229.336V15.6406H225.164V17.6406ZM228.336 16.6406V22.125H230.336V16.6406H228.336ZM229.336 21.125H225.164V23.125H229.336V21.125ZM224.164 22.125V33.7266H226.164V22.125H224.164ZM224.164 33.7266C224.164 34.7364 224.333 35.73 224.943 36.3945L226.417 35.043C226.338 34.9575 226.164 34.623 226.164 33.7266H224.164ZM224.943 36.3945C225.595 37.1058 226.669 37.2812 227.719 37.2812V35.2812C226.738 35.2812 226.452 35.0817 226.417 35.043L224.943 36.3945ZM227.719 37.2812C228.535 37.2812 229.253 37.2327 229.861 37.1254L229.514 35.1558C229.059 35.2361 228.465 35.2812 227.719 35.2812V37.2812ZM228.688 36.1406V41.7891H230.688V36.1406H228.688ZM229.384 40.8363C228.064 41.257 226.682 41.4688 225.234 41.4688V43.4688C226.88 43.4688 228.468 43.2274 229.991 42.7419L229.384 40.8363ZM225.234 41.4688C222.651 41.4688 220.949 40.8581 219.914 39.8355L218.508 41.2583C220.067 42.7981 222.38 43.4688 225.234 43.4688V41.4688ZM219.914 39.8355C218.876 38.8105 218.266 37.1693 218.266 34.7109H216.266C216.266 37.4714 216.952 39.7207 218.508 41.2583L219.914 39.8355ZM218.266 34.7109V22.125H216.266V34.7109H218.266ZM217.266 21.125H214.031V23.125H217.266V21.125ZM215.031 22.125V16.6406H213.031V22.125H215.031ZM214.031 17.6406H217.266V15.6406H214.031V17.6406ZM218.266 16.6406V10.3359H216.266V16.6406H218.266ZM217.266 11.3359H225.164V9.33594H217.266V11.3359Z" fill="#E0E0E0"/>
</g>
<defs>
<filter id="filter0_d" x="0.84375" y="0.257812" width="244.844" height="58.2109" filterUnits="userSpaceOnUse" color-interpolation-filters="sRGB">
<feFlood flood-opacity="0" result="BackgroundImageFix"/>
<feColorMatrix in="SourceAlpha" type="matrix" values="0 0 0 0 0 0 0 0 0 0 0 0 0 0 0 0 0 0 127 0"/>
<feOffset dx="5" dy="5"/>
<feGaussianBlur stdDeviation="5"/>
<feColorMatrix type="matrix" values="0 0 0 0 0 0 0 0 0 0 0 0 0 0 0 0 0 0 0.1 0"/>
<feBlend mode="normal" in2="BackgroundImageFix" result="effect1_dropShadow"/>
<feBlend mode="normal" in="SourceGraphic" in2="effect1_dropShadow" result="shape"/>
</filter>
</defs>
</svg>
